<svg id="Layer_1" data-name="Layer 1" xmlns="http://www.w3.org/2000/svg" viewBox="0 0 824.47 320.16"><defs><style>.cls-1{font-size:271.19px;font-family:Haettenschweiler, Haettenschweiler;}.cls-1,.cls-2{fill:#3fd5e0;}</style></defs><title>Logo Loker</title><text class="cls-1" transform="translate(0 230.51)">Find</text><path class="cls-2" d="M417.66,297h36.81v46.88q0,4.64,5.83,4.63c3.88,0,5.83-1.54,5.83-4.63V183.35h41.71V340.79q0,34.17-47.28,34.17a54.91,54.91,0,0,1-29.86-8.21q-13-8.22-13-21.59Z" transform="translate(-66.52 -142.72)"/><polygon class="cls-2" points="609.43 115.87 671.83 143.22 612 39.6 553.92 140.2 609.43 115.87"/><polygon class="cls-2" points="722.84 231.57 684.08 164.45 539.92 164.45 501.17 231.57 516.89 231.57 496.02 240.72 717.69 240.72 696.82 231.57 722.84 231.57"/><path class="cls-2" d="M624.76,350.54a86.3,86.3,0,0,1-86.3-86.3c0-.38,0-.76,0-1.13s0-.76,0-1.14A86.34,86.34,0,0,1,658.9,182.69a109.3,109.3,0,0,1,19-14,109.31,109.31,0,1,0,2,190,109.26,109.26,0,0,1-20.94-15.15A85.91,85.91,0,0,1,624.76,350.54Z" transform="translate(-66.52 -142.72)"/><text class="cls-1" transform="translate(721.72 230.51)">B</text></svg>